PathFileType	4	(X/Y/Z)	C:\Users\Basilio\Documents\Thesis Gigler\squatting_fais\c3dfiles\041\SLS_pre_front5\markers_experimental.trc
DataRate	CameraRate	NumFrames	NumMarkers	Units	OrigDataRate	OrigDataStartFrame	OrigNumFrames
200.000000	200.000000	4	62	mm	200.000000	1127	1289
Frame#	Time	FHD			LBHD			RBHD			C7			T10			CLAV			LSHO			LUUPA			LMUPA			LDUPA			LLEP			LMEP			LRAD			LUL			LRFIN			RSHO			RUPA1			RMUPA			RDUPA			RLEP			RMEP			RRAD			RUL			RUFIN			LASI			RASI			USACR			LSACR			RSACR			LTHI1			LTHI2			LTHI3			LTHI4			LLFC			LMFC			LTIB1			LTIB2			LTIB3			LTIB4			LLMAL			LMMAL			LHEE			LMT1			LMT2			LMT5			RTHI			RTHI2			RTHI3			RTHI4			RLFC			RMFC			RTIB1			RTIB2			RTIB3			RTIB4			RLMAL			RMMAL			RHEE			RMT1			RMT2			RMT5			*61			
		X1	Y1	Z1	X2	Y2	Z2	X3	Y3	Z3	X4	Y4	Z4	X5	Y5	Z5	X6	Y6	Z6	X7	Y7	Z7	X8	Y8	Z8	X9	Y9	Z9	X10	Y10	Z10	X11	Y11	Z11	X12	Y12	Z12	X13	Y13	Z13	X14	Y14	Z14	X15	Y15	Z15	X16	Y16	Z16	X17	Y17	Z17	X18	Y18	Z18	X19	Y19	Z19	X20	Y20	Z20	X21	Y21	Z21	X22	Y22	Z22	X23	Y23	Z23	X24	Y24	Z24	X25	Y25	Z25	X26	Y26	Z26	X27	Y27	Z27	X28	Y28	Z28	X29	Y29	Z29	X30	Y30	Z30	X31	Y31	Z31	X32	Y32	Z32	X33	Y33	Z33	X34	Y34	Z34	X35	Y35	Z35	X36	Y36	Z36	X37	Y37	Z37	X38	Y38	Z38	X39	Y39	Z39	X40	Y40	Z40	X41	Y41	Z41	X42	Y42	Z42	X43	Y43	Z43	X44	Y44	Z44	X45	Y45	Z45	X46	Y46	Z46	X47	Y47	Z47	X48	Y48	Z48	X49	Y49	Z49	X50	Y50	Z50	X51	Y51	Z51	X52	Y52	Z52	X53	Y53	Z53	X54	Y54	Z54	X55	Y55	Z55	X56	Y56	Z56	X57	Y57	Z57	X58	Y58	Z58	X59	Y59	Z59	X60	Y60	Z60	X61	Y61	Z61	X62	Y62	Z62	

1128	5.635	-131.648681640625	1763.409423828125	-734.5322265625001	-322.1669006347657	1699.18017578125	-771.4114990234377	-262.1378173828126	1682.409301757813	-630.2977294921876	-349.3684997558594	1557.726196289063	-749.1567382812501	-394.2878417968751	1244.41357421875	-800.582458496094	-197.306381225586	1485.664184570313	-775.8814086914065	-274.5614929199219	1583.47509765625	-931.1597290039065	-357.5001525878907	1426.805053710938	-1046.681396484375	-330.0805664062501	1386.459350585938	-1049.810913085938	-383.6091308593751	1367.978393554688	-1073.821533203125	-398.7171020507814	1321.811767578125	-1090.151000976563	-410.8885803222657	1272.830444335938	-1017.10791015625	-231.5127105712891	1095.611328125	-1102.875366210938	-297.8796997070313	1077.894653320313	-1132.771240234375	-196.1285095214844	1041.902709960938	-1150.07470703125	-246.894271850586	1498.780517578125	-593.1048583984376	-314.8641357421876	1285.789672851563	-527.1237792968751	-266.2640075683594	1272.345947265625	-526.7997436523439	-292.4106445312501	1219.657104492188	-517.5322875976564	-286.9411315917969	1174.387817382813	-515.8324584960939	-305.8064880371094	1156.956176757813	-602.8029785156251	-138.08642578125	960.700866699219	-574.6002807617189	-199.5371704101563	933.5430297851565	-539.3926391601564	-94.32801818847658	897.7820434570315	-555.2640991210939	-235.5799865722657	1062.870483398438	-944.9716796875002	-216.4506835937501	1044.147094726563	-719.0646362304689	-402.2566528320314	1128.069213867188	-811.4150390625002	-419.1856994628907	1102.35546875	-837.645202636719	-414.5977172851564	1099.346313476563	-782.9797363281252	-355.2587585449219	861.144958496094	-1023.876953125	-317.1086425781251	786.144226074219	-1036.460083007813	-269.1884765625001	790.4942016601565	-1030.824096679688	-342.9743957519532	730.9514770507814	-1030.976928710938	-316.9510498046876	553.9713745117189	-1043.74267578125	-298.5944519042969	517.4949340820314	-930.8808593750002	-290.7720336914063	356.1817321777344	-1020.346740722656	-344.2674865722657	325.9958190917969	-1083.718872070313	-305.3594970703126	316.0093688964844	-1062.834838867188	-309.9169616699219	234.7878417968751	-1041.883666992188	-376.3869323730469	148.8009948730469	-1091.07861328125	-333.0214233398438	142.341796875	-1012.641662597656	-443.2230529785157	126.5265731811524	-1049.994995117188	-238.1087646484376	62.20930099487306	-1038.066040039063	-232.7490692138672	58.68775558471681	-1083.34375	-285.1827392578126	50.22238540649415	-1133.42529296875	-308.2968139648438	781.6712646484377	-660.4263305664064	-268.7417602539063	729.0787963867189	-667.7668457031251	-236.4701385498047	732.8335571289064	-674.0417480468751	-293.8551330566407	650.3533325195314	-682.9243774414064	-287.7588806152344	523.9843139648439	-693.2632446289064	-289.4252319335938	513.4415283203126	-814.1134033203127	-271.2532653808594	354.9591064453126	-718.1638183593751	-357.2547302246094	285.4484252929688	-694.0677490234376	-312.5790405273438	278.6265563964844	-702.9170532226564	-300.4717407226563	231.0219879150391	-738.1132202148439	-368.8038940429688	124.5196304321289	-722.3945312500001	-350.7433166503907	139.1181030273438	-803.2434082031252	-436.1701049804689	105.0438385009766	-764.0147094726564	-232.591537475586	54.35205841064455	-807.905944824219	-220.6046142578126	54.66959762573244	-756.6972045898439	-260.2183532714844	42.1666488647461	-700.6105957031251	-4217.046386718751	853.1323242187502	-3944.759277343751	
1129	5.64	-131.7607421875	1763.303833007813	-732.7357177734376	-322.0839538574219	1699.162719726563	-769.380065917969	-262.0429687500001	1682.178344726563	-628.4628295898439	-349.4165039062501	1557.949829101563	-747.5968017578126	-394.5401916503907	1244.514892578125	-799.716735839844	-197.6656646728516	1485.505859375	-774.5876464843752	-274.3084106445313	1583.795288085938	-929.281677246094	-357.1153869628907	1427.383911132813	-1045.639282226563	-330.0765075683594	1387.308227539063	-1048.658325195313	-383.5042114257813	1369.1494140625	-1073.020263671875	-398.612274169922	1322.97998046875	-1089.734375	-411.112274169922	1273.74267578125	-1017.076599121094	-230.6160736083985	1097.115600585938	-1101.73046875	-296.6450195312501	1079.205810546875	-1131.615112304688	-195.3678436279297	1043.942626953125	-1149.086181640625	-246.9530029296876	1498.472412109375	-591.7988281250001	-314.3627319335938	1285.235107421875	-525.8760375976564	-265.8550415039063	1272.056518554688	-525.2587890625001	-291.6883239746094	1219.213989257813	-516.2032470703126	-285.7048034667969	1173.796630859375	-514.4766845703126	-304.2742309570313	1156.395874023438	-601.5783081054689	-133.6430206298828	962.4463500976565	-572.7673339843751	-194.9456176757813	934.3191528320315	-538.4833374023439	-89.31711578369142	900.3501586914065	-552.9384765625001	-235.4703521728516	1063.030639648438	-943.9937133789065	-216.1811828613282	1044.465454101563	-718.5034179687501	-402.5220336914064	1128.138793945313	-810.5172119140627	-419.3647766113282	1102.41796875	-836.8941040039065	-414.839569091797	1099.419311523438	-782.288024902344	-355.1774597167969	861.3196411132815	-1023.22802734375	-317.1638183593751	786.4161376953127	-1035.94970703125	-268.9930419921876	790.5449829101565	-1030.005493164063	-342.3814392089844	730.9848022460939	-1030.184692382813	-316.5780029296876	554.2802124023439	-1043.351318359375	-298.3533630371094	517.7270507812501	-930.5463867187502	-290.4760131835938	356.5810546875001	-1020.16748046875	-344.0620727539063	326.3002014160157	-1083.533935546875	-305.0774230957032	316.3714294433594	-1062.677978515625	-309.7975769042969	235.1734466552735	-1041.690795898438	-376.4653320312501	149.2624206542969	-1091.200439453125	-332.7913513183594	142.5698852539063	-1012.573486328125	-443.0948791503907	126.9674682617188	-1049.885620117188	-237.9707946777344	62.2687454223633	-1038.057739257813	-232.7281494140626	58.74450302124025	-1083.238037109375	-285.1243896484376	50.41700363159181	-1133.339477539063	-308.9147338867188	781.6994628906252	-659.8522949218751	-269.1720581054688	729.2193603515626	-667.1940307617189	-236.7482299804688	732.7775878906251	-673.3784179687501	-294.1135864257813	650.2712402343751	-682.5099487304689	-288.2537231445313	524.0428466796876	-692.6694946289064	-289.6754455566407	513.5010375976564	-813.7580566406252	-271.4159545898438	354.8482971191407	-717.9768676757814	-357.5159912109376	285.4328308105469	-693.8730468750001	-312.7722778320313	278.5733642578126	-702.7843017578126	-300.4735107421876	230.9824218750001	-738.0264892578126	-368.8282165527344	124.4737548828125	-722.4315185546876	-350.7369689941407	139.0811614990235	-803.176452636719	-436.1580200195314	105.0273056030274	-763.9988403320314	-232.4411010742188	54.27392196655275	-807.8823852539065	-220.6471557617188	54.70783615112306	-756.6848144531251	-260.2285156250001	42.16236877441407	-700.6098022460939	-4217.191406250001	853.2161865234377	-3944.770751953126	
1130	5.645	-131.712158203125	1763.087036132813	-730.5920410156251	-322.1786193847657	1698.826049804688	-767.5429077148439	-262.0773315429688	1681.7958984375	-626.3870239257814	-349.2891235351563	1557.885986328125	-745.9653930664064	-394.7628479003907	1244.66748046875	-798.709899902344	-197.7194519042969	1485.3505859375	-772.7278442382815	-273.9472656250001	1584.109985351563	-927.6053466796877	-357.1585998535157	1428.630615234375	-1044.559814453125	-329.8264160156251	1388.198364257813	-1047.7607421875	-383.0902099609376	1370.211181640625	-1072.367309570313	-398.3321533203126	1324.21826171875	-1089.23095703125	-411.3805541992189	1274.71337890625	-1016.732055664063	-230.0484008789063	1098.70947265625	-1100.709594726563	-296.1787719726563	1080.646362304688	-1130.433227539063	-194.7253570556641	1045.589599609375	-1148.099975585938	-247.2601318359376	1498.240600585938	-590.2163085937501	-313.8126831054688	1284.669311523438	-524.7458496093751	-265.1454772949219	1271.662109375	-524.2308349609376	-290.9685363769532	1218.773559570313	-514.8856201171876	-284.6355590820313	1173.34130859375	-513.1779174804689	-302.7922668457032	1155.832397460938	-600.3922729492189	-129.1216278076172	964.3308105468752	-571.1503295898439	-190.9900970458985	934.9866943359377	-537.5264282226564	-84.48274230957033	902.8571777343752	-550.5018310546876	-235.5500488281251	1063.2841796875	-943.103698730469	-216.1598663330079	1044.378051757813	-717.3548583984376	-402.6864624023439	1128.209838867188	-809.659118652344	-419.5640563964845	1102.514526367188	-836.195739746094	-415.0443725585939	1099.602661132813	-781.4226684570315	-355.0509948730469	861.2808227539065	-1023.188720703125	-316.8926696777344	786.709167480469	-1035.4326171875	-268.8901672363282	791.0107421875002	-1029.548461914063	-342.3261413574219	731.2080688476564	-1029.912841796875	-316.1686706542969	554.5966796875001	-1042.936889648438	-298.0812072753907	517.8826904296876	-930.175720214844	-290.0358886718751	356.9004211425782	-1019.964294433594	-343.6979675292969	326.6115722656251	-1083.334350585938	-304.9351501464844	316.8348693847657	-1062.308349609375	-309.6228332519532	235.4069366455079	-1041.556274414063	-376.2997436523438	149.6854858398438	-1091.148681640625	-332.6358337402344	142.9690246582032	-1012.490356445313	-442.9781188964845	127.4431610107422	-1049.748901367188	-237.9411315917969	62.37230682373048	-1038.061279296875	-232.4036712646485	59.03417587280275	-1083.59228515625	-284.8561096191407	50.04636383056642	-1133.333984375	-309.0715026855469	781.6685791015627	-659.4172363281251	-269.5052185058594	729.1232299804689	-666.6727905273439	-237.0074157714844	732.7528076171876	-672.9465332031251	-294.3090820312501	650.2764892578126	-682.1701049804689	-288.4955139160157	524.0320434570314	-692.4248657226564	-289.9984130859376	513.5504760742189	-813.4038085937502	-271.5363159179688	354.8732910156251	-717.7512207031251	-357.7052307128907	285.3036499023438	-693.7354736328126	-312.9247131347657	278.2660827636719	-703.2675170898439	-300.5398254394532	230.9862213134766	-737.9650268554689	-368.8523864746094	124.4012680053711	-722.3947143554689	-350.7760620117188	139.0723114013672	-803.147399902344	-436.1675109863282	105.0112380981446	-764.0003051757814	-232.4202270507813	54.24591445922853	-807.8674316406252	-220.6515197753907	54.69361114501955	-756.6926269531251	-260.2120056152344	42.12979125976563	-700.6355590820314	-4217.021972656251	853.154968261719	-3944.807617187501	
1131	5.65	-131.947494506836	1763.162109375	-728.7704467773439	-322.3331298828126	1698.46240234375	-765.7529296875001	-262.2825622558594	1681.452514648438	-624.3724975585939	-349.2705383300782	1557.711791992188	-744.3821411132814	-395.0226135253907	1244.8212890625	-797.7546997070315	-197.9767456054688	1485.346557617188	-771.2084960937502	-273.6738281250001	1584.456787109375	-925.9414672851565	-356.7868347167969	1429.538330078125	-1043.58056640625	-329.7116394042969	1389.184448242188	-1046.700805664063	-382.9973144531251	1371.285400390625	-1071.572021484375	-398.253631591797	1325.362915039063	-1088.640258789063	-411.6558227539064	1275.744018554688	-1016.520202636719	-229.4716796875001	1100.306274414063	-1099.865112304688	-295.7828979492188	1081.972412109375	-1129.161499023438	-194.1343231201172	1047.111694335938	-1147.167236328125	-247.3426055908204	1498.019653320313	-588.6289062500001	-313.2972412109376	1284.013671875	-523.4586181640626	-264.4882202148438	1271.34619140625	-522.8297729492189	-290.0270385742188	1218.33251953125	-513.5655517578126	-283.8177185058594	1173.058471679688	-511.796600341797	-301.2280578613282	1155.30029296875	-599.0734863281251	-125.0330276489258	966.225280761719	-569.2689819335939	-186.2678680419922	935.9215087890627	-536.5855102539064	-79.48415374755861	905.2377929687502	-548.3257446289064	-235.8248748779297	1063.517456054688	-942.1654052734377	-216.2413635253907	1044.50830078125	-716.2506103515626	-402.9100646972657	1128.300170898438	-808.9143066406252	-419.7911987304689	1102.64697265625	-835.374938964844	-415.4467773437501	1099.952026367188	-780.7786865234377	-354.9367980957032	861.6086425781252	-1022.711303710938	-316.7685241699219	786.9674072265627	-1034.791381835938	-268.6701660156251	791.3377685546877	-1028.885986328125	-342.0303344726563	731.4056396484376	-1029.37548828125	-315.6668701171876	554.8411865234376	-1042.498291015625	-297.8376159667969	518.1252441406251	-929.8843994140627	-289.7471923828126	357.0973815917969	-1019.639892578125	-343.5195922851563	326.7926940917969	-1083.145385742188	-304.5747680664063	317.1781005859376	-1062.218383789063	-309.5225219726563	235.5216522216797	-1040.91943359375	-376.0537109375001	149.9958953857422	-1091.072265625	-332.4260559082032	143.2118835449219	-1012.461181640625	-442.8494567871095	128.046142578125	-1049.670776367188	-237.998519897461	62.31546020507814	-1037.945556640625	-232.6979980468751	58.86794281005861	-1083.071655273438	-284.7896423339844	50.26486968994142	-1133.24560546875	-309.1921386718751	781.636169433594	-659.1751098632814	-269.9666137695313	729.0686035156251	-666.1260986328126	-237.3436737060547	732.7340087890626	-672.3990478515626	-294.7893371582032	650.4157104492189	-681.6923828125001	-288.6141052246094	523.9730834960939	-692.2593383789064	-290.3114624023438	513.6048583984376	-812.9981079101565	-271.6573486328126	354.8768005371094	-717.5268554687501	-357.7792663574219	285.1551818847657	-693.5858154296876	-312.9918518066407	278.2163085937501	-703.1837158203126	-300.5788574218751	230.9805603027344	-737.9406738281251	-368.8817138671876	124.2955780029297	-722.3572387695314	-350.7783508300782	139.0657196044922	-803.150817871094	-436.212371826172	104.9962539672852	-764.0208740234376	-232.6098632812501	54.31579971313478	-807.913269042969	-220.6705780029297	54.6466636657715	-756.6418457031251	-260.2240295410157	42.14083862304688	-700.6319580078126	-4217.087402343751	853.1478271484377	-3944.770263671876	
